<?xml version="1.0" standalone="no"?>
<!DOCTYPE svg PUBLIC "-//W3C//DTD SVG 20010904//EN"
 "http://www.w3.org/TR/2001/REC-SVG-20010904/DTD/svg10.dtd">
<svg version="1.0" xmlns="http://www.w3.org/2000/svg"
 width="2048.000000pt" height="2048.000000pt" viewBox="0 0 2048.000000 2048.000000"
 preserveAspectRatio="xMidYMid meet">
<metadata>
Created by potrace 1.11, written by Peter Selinger 2001-2013
</metadata>
<g transform="translate(0.000000,2048.000000) scale(0.100000,-0.100000)"
fill="#000000" stroke="none">
<path d="M3085 16215 l0 -2225 75 0 c115 -1 703 -1 723 -1 9 1 17 7 17 14 0
13 81 266 98 307 6 14 25 63 42 110 41 110 139 346 185 447 20 43 55 119 78
168 167 363 411 789 652 1135 286 412 665 835 920 1028 128 97 333 201 440
225 75 17 95 20 295 42 56 6 150 15 220 20 36 3 88 7 115 10 28 2 106 7 175
11 69 3 150 8 180 9 197 11 702 19 1165 20 l540 0 -1 -6660 c0 -3663 -3 -6701
-7 -6751 -17 -229 -78 -427 -183 -590 -33 -51 -168 -195 -221 -236 -79 -61
-232 -144 -339 -184 -68 -25 -220 -67 -304 -83 -30 -6 -64 -12 -75 -14 -29 -7
-111 -19 -205 -32 -25 -3 -56 -8 -70 -10 -95 -14 -150 -20 -260 -30 -30 -3
-71 -7 -90 -10 -19 -3 -64 -7 -100 -10 -35 -3 -76 -7 -90 -9 -14 -3 -61 -8
-105 -12 -44 -4 -89 -8 -100 -9 -11 -1 -59 -5 -107 -9 -49 -4 -96 -9 -105 -10
-10 -2 -61 -7 -113 -11 -141 -10 -160 -12 -167 -19 -5 -4 -8 -710 -4 -799 1
-16 190 -17 3874 -15 l3872 3 0 408 c0 266 -3 407 -10 408 -19 2 -80 7 -175
14 -52 4 -101 8 -111 10 -9 2 -40 6 -70 10 -30 3 -92 13 -139 20 -47 8 -98 16
-115 19 -57 8 -200 35 -272 50 -40 9 -85 18 -100 21 -33 6 -42 7 -148 30 -44
9 -88 18 -98 20 -10 2 -26 6 -35 9 -9 3 -28 7 -42 10 -14 3 -34 7 -45 10 -11
2 -54 12 -95 21 -440 99 -656 198 -848 388 -135 132 -240 337 -297 582 -34
144 -34 62 -34 6842 l-1 6633 672 -6 c370 -2 702 -6 738 -8 36 -2 142 -6 235
-10 94 -4 195 -9 225 -11 30 -2 111 -6 180 -10 69 -4 134 -9 144 -11 11 -2 58
-6 106 -9 48 -3 96 -7 106 -9 11 -2 53 -7 94 -11 250 -23 483 -130 735 -339
79 -65 344 -331 424 -426 35 -41 83 -97 106 -125 37 -43 183 -235 253 -333 24
-34 208 -313 229 -347 19 -31 184 -307 204 -340 126 -212 466 -925 504 -1055
4 -14 11 -29 15 -35 8 -9 118 -332 125 -365 1 -8 8 -34 14 -58 l12 -42 74 0
c41 -1 212 -1 380 -1 168 0 314 0 325 1 20 0 20 7 20 2225 l0 2225 -7152 0
-7153 0 0 -2225z"/>
</g>
</svg>
